<?xml version="1.0" encoding="UTF-8"?>
<!DOCTYPE svg PUBLIC "-//W3C//DTD SVG 1.1//EN" "http://www.w3.org/Graphics/SVG/1.1/DTD/svg11.dtd">
<!-- Creator: CorelDRAW -->
<svg xmlns="http://www.w3.org/2000/svg" xml:space="preserve" width="100mm" height="100mm" version="1.1" style="shape-rendering:geometricPrecision; text-rendering:geometricPrecision; image-rendering:optimizeQuality; fill-rule:evenodd; clip-rule:evenodd"
viewBox="0 0 10000 10000"
 xmlns:xlink="http://www.w3.org/1999/xlink"
 xmlns:xodm="http://www.corel.com/coreldraw/odm/2003">
 <defs>
  <style type="text/css">
   <![CDATA[
    .fil0 {fill:black}
   ]]>
  </style>
 </defs>
 <g id="Слой_x0020_1">
  <metadata id="CorelCorpID_0Corel-Layer"/>
  <path class="fil0" d="M3361.97 2613.79c-504.82,8.72 -903.85,93.67 -1326.41,279.99 -731.97,322.75 -1354.99,1063.4 -1328.01,1902.57 15.21,473.03 234.75,919.69 473.28,1150.68 304.07,294.45 617.41,434.48 1203.02,394.65 510.54,-34.73 889.56,-165.55 971.51,-645.89 39.88,-233.76 9.3,-500.91 -130.35,-645.65 -173.96,-180.3 -393.64,-154.69 -475.05,-336.73 -246.69,-551.65 480.28,-736.74 871.41,-589.12 368.57,139.12 584.26,583.84 648.35,955.85 45.72,265.45 46.28,481.95 -58.45,712.27 -83.84,184.39 -291.41,490.45 -404,601.8l-884.02 932.39c-62.65,80.81 -113.43,135.66 -182.47,223.4l-169.77 235.74c-640.17,957.28 -170.26,2149.73 1099.49,1875.28 427.84,-92.48 805.02,-373.64 724.04,-895.07 -83.01,-534.5 -657.96,-543.54 -1079.61,-478.61 52.12,-231.96 289.62,-409.9 413.02,-526.77 327.39,-310.06 626.16,-590.36 903.72,-965.54l364.61 -563.91c117.75,126.09 268.67,601.1 1026.57,1295.24 44.4,40.66 76.6,68.62 121.23,108.76 46.82,42.11 74.68,82.03 120.53,125.45 123.34,116.82 360.98,294.88 412.96,526.77 -412.32,-63.6 -985.73,-57.51 -1076.88,462.87 -142.69,814.51 868.37,1070.2 1413.46,902.23 721.85,-222.44 822.48,-976.79 558.94,-1594.97 -79.75,-187.08 -202.73,-346.58 -306.17,-487.34 -166.35,-226.35 -568.22,-631.33 -770.11,-853.15l-390.25 -420.67c-251.27,-295.77 -475.84,-647.23 -386.31,-1200.41 61.19,-378.12 278.7,-831.11 650.94,-971.61 365.42,-137.92 1106.12,18.04 876.61,576.78 -81.11,197.46 -296.56,164.25 -471.38,340.2 -143.54,144.47 -179.04,394.49 -141.71,639.15 74.69,489.46 439.44,612.57 943.25,658.68 598.53,54.77 908.5,-86.06 1224.69,-383.43 233.33,-219.43 458.78,-662.94 481.01,-1123.81 41.64,-863.22 -572.28,-1591.56 -1314.46,-1932.62 -411.92,-189.29 -840.55,-276.85 -1338.62,-285.45 105.5,-256.3 267.85,-373.54 195.68,-882.32 -161.1,-1135.87 -1566.92,-1769.92 -2702.33,-1229.79 -119.4,56.8 -244.3,132.82 -339.69,206.81 -442.74,343.39 -742.8,952.65 -598.26,1522.44 44.53,175.53 119.75,246.2 175.99,382.86z"/>
 </g>
</svg>
